<?xml version="1.0" encoding="utf-8"?>
<!-- Generator: Adobe Illustrator 24.0.3, SVG Export Plug-In . SVG Version: 6.00 Build 0)  -->
<svg version="1.1" id="图层_1" xmlns="http://www.w3.org/2000/svg" xmlns:xlink="http://www.w3.org/1999/xlink" x="0px" y="0px"
	 viewBox="0 0 428.4 95.6" style="enable-background:new 0 0 428.4 95.6;" xml:space="preserve">
<style type="text/css">
	.st0{fill:#030017;}
	.st1{clip-path:url(#SVGID_2_);fill:url(#SVGID_3_);}
	.st2{fill:#2EACDA;}
	.st3{fill:#6DE1BC;}
	.st4{fill:#0084CE;}
	.st5{fill:#F48600;}
	.st6{fill:#FF2C00;}
	.st7{fill:#FF70D7;}
	.st8{fill:#9669FE;}
	.st9{fill:#462DAA;}
	.st10{fill:#EA9FE6;}
	.st11{fill:url(#SVGID_6_);}
	.st12{clip-path:url(#SVGID_8_);fill:#030017;}
	.st13{clip-path:url(#SVGID_8_);}
	.st14{clip-path:url(#SVGID_10_);fill:url(#SVGID_11_);}
	.st15{clip-path:url(#SVGID_13_);fill:url(#SVGID_14_);}
	.st16{opacity:0.26;fill:#FF53A3;}
	.st17{fill:url(#SVGID_17_);}
	.st18{fill:url(#SVGID_18_);}
	.st19{fill:url(#SVGID_19_);}
	.st20{fill:url(#SVGID_20_);}
	.st21{fill:url(#SVGID_21_);}
	.st22{fill:#FFFFFF;stroke:#FFFFFF;stroke-width:0.4658;stroke-miterlimit:10;}
	.st23{fill:url(#SVGID_22_);}
	.st24{fill:url(#SVGID_23_);}
	.st25{fill:url(#SVGID_24_);}
	.st26{fill:url(#SVGID_25_);}
	.st27{fill:url(#SVGID_26_);}
	.st28{fill:url(#SVGID_27_);}
	.st29{fill:url(#SVGID_28_);}
	.st30{fill:url(#SVGID_29_);}
	.st31{fill:url(#SVGID_30_);}
	.st32{fill:url(#SVGID_31_);}
	.st33{fill:url(#SVGID_32_);}
	.st34{fill:url(#SVGID_33_);}
	.st35{fill:url(#SVGID_34_);}
	.st36{fill:url(#SVGID_35_);}
	.st37{fill:url(#SVGID_36_);}
	.st38{fill:url(#SVGID_37_);}
	.st39{fill:url(#SVGID_38_);}
	.st40{fill:url(#SVGID_39_);}
	.st41{fill:url(#SVGID_40_);}
	.st42{fill:url(#SVGID_41_);}
	.st43{fill:#FFFFFF;}
	.st44{fill:url(#SVGID_42_);}
	.st45{fill:url(#SVGID_43_);}
	.st46{fill:url(#SVGID_44_);}
	.st47{fill:url(#SVGID_45_);}
	.st48{fill:url(#SVGID_46_);}
	.st49{fill:url(#SVGID_47_);}
	.st50{fill:url(#SVGID_48_);}
	.st51{fill:url(#SVGID_49_);}
	.st52{fill:url(#SVGID_50_);}
	.st53{fill:url(#SVGID_51_);}
	.st54{fill:url(#SVGID_52_);}
	.st55{fill:url(#SVGID_53_);}
	.st56{fill:url(#SVGID_54_);}
	.st57{fill:url(#SVGID_55_);}
	.st58{fill:url(#SVGID_56_);}
	.st59{fill:url(#SVGID_57_);}
	.st60{fill:url(#SVGID_58_);}
	.st61{fill:url(#SVGID_59_);}
	.st62{fill:url(#SVGID_60_);}
	.st63{fill:url(#SVGID_61_);}
	.st64{fill:url(#SVGID_62_);}
	.st65{fill:url(#SVGID_63_);}
	.st66{fill:url(#SVGID_64_);}
	.st67{fill:url(#SVGID_65_);}
	.st68{fill:url(#SVGID_66_);}
	.st69{fill:url(#SVGID_67_);}
	.st70{fill:url(#SVGID_68_);}
	.st71{fill:url(#SVGID_69_);}
	.st72{fill:url(#SVGID_70_);}
	.st73{fill:url(#SVGID_71_);}
	.st74{fill:url(#SVGID_72_);}
	.st75{fill:url(#SVGID_73_);}
	.st76{fill:url(#SVGID_74_);}
	.st77{fill:url(#SVGID_75_);}
	.st78{fill:url(#SVGID_76_);}
	.st79{fill:url(#SVGID_77_);}
	.st80{fill:url(#SVGID_78_);}
	.st81{fill:url(#SVGID_79_);}
	.st82{fill:url(#SVGID_80_);}
	.st83{fill:url(#SVGID_81_);}
	.st84{fill:url(#SVGID_82_);}
	.st85{fill:url(#SVGID_83_);}
	.st86{fill:url(#SVGID_84_);}
	.st87{fill:url(#SVGID_85_);}
	.st88{fill:url(#SVGID_86_);}
	.st89{fill:url(#SVGID_87_);}
	.st90{fill:url(#SVGID_88_);}
	.st91{fill:url(#SVGID_89_);}
	.st92{fill:url(#SVGID_90_);}
	.st93{fill:url(#SVGID_91_);}
	.st94{fill:url(#SVGID_92_);}
	.st95{fill:url(#SVGID_93_);}
	.st96{fill:url(#SVGID_94_);}
	.st97{fill:url(#SVGID_95_);}
	.st98{fill:url(#SVGID_96_);}
	.st99{fill:url(#SVGID_97_);}
	.st100{fill:url(#SVGID_98_);}
	.st101{fill:url(#SVGID_99_);}
	.st102{fill:url(#SVGID_100_);}
	.st103{fill:url(#SVGID_101_);}
	.st104{fill:url(#SVGID_102_);}
	.st105{fill:url(#SVGID_103_);}
	.st106{fill:url(#SVGID_104_);}
	.st107{fill:url(#SVGID_105_);}
	.st108{fill:url(#SVGID_106_);}
	.st109{fill:url(#SVGID_107_);}
	.st110{fill:#3333FF;}
	.st111{opacity:0.9;fill:#3333FF;}
	.st112{opacity:0.8;fill:#3333FF;}
	.st113{opacity:0.7;fill:#3333FF;}
	.st114{opacity:0.6;fill:#3333FF;}
	.st115{opacity:0.4;fill:#3333FF;}
	.st116{fill:#58CDFF;}
	.st117{fill:#A837FF;}
	.st118{fill:#060204;}
	.st119{fill:url(#SVGID_108_);}
	.st120{fill:url(#SVGID_109_);}
	.st121{fill:url(#SVGID_110_);}
	.st122{opacity:0.9;fill:#58CDFF;}
	.st123{opacity:0.8;fill:#58CDFF;}
	.st124{opacity:0.7;fill:#58CDFF;}
	.st125{opacity:0.6;fill:#58CDFF;}
	.st126{opacity:0.5;fill:#58CDFF;}
	.st127{opacity:0.9;fill:#A837FF;}
	.st128{opacity:0.8;fill:#A837FF;}
	.st129{opacity:0.7;fill:#A837FF;}
	.st130{opacity:0.6;fill:#A837FF;}
	.st131{opacity:0.5;fill:#A837FF;}
	.st132{fill:url(#SVGID_111_);}
	.st133{fill:url(#SVGID_112_);}
	.st134{fill:url(#SVGID_113_);}
	.st135{fill:url(#SVGID_114_);}
	.st136{fill:url(#SVGID_115_);}
	.st137{fill:url(#SVGID_116_);}
	.st138{fill:url(#SVGID_117_);}
	.st139{fill:url(#SVGID_118_);}
	.st140{fill:url(#SVGID_119_);}
	.st141{fill:url(#SVGID_120_);}
	.st142{fill:#5D5F7C;}
	.st143{fill:url(#SVGID_121_);}
	.st144{fill:url(#SVGID_122_);}
	.st145{fill:url(#SVGID_123_);}
	.st146{fill:url(#SVGID_124_);}
	.st147{fill:url(#SVGID_125_);}
	.st148{fill:url(#SVGID_126_);}
	.st149{fill:url(#SVGID_127_);}
	.st150{fill:url(#SVGID_128_);}
	.st151{fill:url(#SVGID_129_);}
	.st152{fill:url(#SVGID_130_);}
	.st153{fill:url(#SVGID_131_);}
	.st154{fill:url(#SVGID_132_);}
	.st155{fill:url(#SVGID_133_);}
	.st156{fill:url(#SVGID_134_);}
	.st157{fill:url(#SVGID_135_);}
	.st158{fill:url(#SVGID_136_);}
	.st159{fill:url(#SVGID_137_);}
	.st160{fill:url(#SVGID_138_);}
	.st161{fill:url(#SVGID_139_);}
	.st162{fill:url(#SVGID_140_);}
	.st163{fill:url(#SVGID_141_);}
	.st164{fill:url(#SVGID_142_);}
	.st165{fill:url(#SVGID_143_);}
	.st166{fill:url(#SVGID_144_);}
	.st167{fill:url(#SVGID_145_);}
	.st168{fill:url(#SVGID_146_);}
	.st169{fill:url(#SVGID_147_);}
	.st170{fill:url(#SVGID_148_);}
	.st171{fill:url(#SVGID_149_);}
	.st172{fill:url(#SVGID_150_);}
	.st173{fill:url(#SVGID_151_);}
	.st174{fill:url(#SVGID_152_);}
	.st175{fill:url(#SVGID_153_);}
	.st176{fill:url(#SVGID_154_);}
	.st177{fill:url(#SVGID_155_);}
	.st178{fill:url(#SVGID_156_);}
	.st179{fill:url(#SVGID_157_);}
	.st180{fill:url(#SVGID_158_);}
	.st181{fill:url(#SVGID_159_);}
	.st182{fill:url(#SVGID_160_);}
	.st183{fill:url(#SVGID_161_);}
	.st184{fill:url(#SVGID_162_);}
	.st185{fill:url(#SVGID_163_);}
	.st186{fill:url(#SVGID_164_);}
	.st187{fill:url(#SVGID_165_);}
	.st188{fill:url(#SVGID_166_);}
	.st189{fill:url(#SVGID_167_);}
	.st190{fill:url(#SVGID_168_);}
	.st191{fill:url(#SVGID_169_);}
	.st192{fill:url(#SVGID_170_);}
	.st193{fill:url(#SVGID_171_);}
	.st194{fill:url(#SVGID_172_);}
	.st195{fill:url(#SVGID_173_);}
	.st196{fill:url(#SVGID_174_);}
	.st197{fill:url(#SVGID_175_);}
	.st198{fill:url(#SVGID_176_);}
	.st199{fill:#FFFFFF;stroke:#FFFFFF;stroke-width:0.9924;stroke-miterlimit:10;}
	.st200{fill:url(#SVGID_177_);}
	.st201{fill:url(#SVGID_178_);}
	.st202{fill:url(#SVGID_179_);}
	.st203{fill:url(#SVGID_180_);}
	.st204{fill:url(#SVGID_181_);}
	.st205{fill:#3636A3;}
	.st206{fill:url(#SVGID_182_);}
	.st207{fill:url(#SVGID_183_);}
	.st208{fill:url(#SVGID_184_);}
	.st209{fill:url(#SVGID_185_);}
	.st210{fill:url(#SVGID_186_);}
	.st211{fill:url(#SVGID_187_);}
	.st212{fill:url(#SVGID_188_);}
	.st213{fill:url(#SVGID_189_);}
	.st214{fill:url(#SVGID_190_);}
	.st215{fill:url(#SVGID_191_);}
	.st216{fill:url(#SVGID_192_);}
	.st217{fill:url(#SVGID_193_);}
	.st218{fill:url(#SVGID_194_);}
	.st219{fill:url(#SVGID_195_);}
	.st220{fill:url(#SVGID_196_);}
	.st221{fill:url(#SVGID_197_);}
	.st222{fill:url(#SVGID_198_);}
	.st223{fill:url(#SVGID_199_);}
	.st224{fill:url(#SVGID_200_);}
	.st225{fill:url(#SVGID_201_);}
	.st226{fill:url(#SVGID_202_);}
	.st227{fill:url(#SVGID_203_);}
	.st228{fill:url(#SVGID_204_);}
	.st229{fill:url(#SVGID_205_);}
	.st230{fill:url(#SVGID_206_);}
	.st231{fill:url(#SVGID_207_);}
	.st232{fill:url(#SVGID_208_);}
	.st233{fill:url(#SVGID_209_);}
	.st234{fill:url(#SVGID_210_);}
	.st235{fill:url(#SVGID_211_);}
	.st236{fill:url(#SVGID_212_);}
	.st237{fill:url(#SVGID_213_);}
	.st238{fill:url(#SVGID_214_);}
	.st239{fill:url(#SVGID_215_);}
	.st240{fill:url(#SVGID_216_);}
	.st241{fill:url(#SVGID_217_);}
	.st242{fill:url(#SVGID_218_);}
	.st243{fill:url(#SVGID_219_);}
	.st244{fill:url(#SVGID_220_);}
	.st245{fill:url(#SVGID_221_);}
	.st246{fill:url(#SVGID_222_);}
	.st247{fill:url(#SVGID_223_);}
	.st248{fill:url(#SVGID_224_);}
	.st249{fill:url(#SVGID_225_);}
	.st250{fill:url(#SVGID_226_);}
	.st251{fill:url(#SVGID_227_);}
	.st252{fill:url(#SVGID_228_);}
	.st253{fill:url(#SVGID_229_);}
	.st254{fill:url(#SVGID_230_);}
	.st255{fill:url(#SVGID_231_);}
	.st256{fill:url(#SVGID_232_);}
	.st257{fill:url(#SVGID_233_);}
	.st258{fill:url(#SVGID_234_);}
	.st259{fill:url(#SVGID_235_);}
	.st260{fill:url(#SVGID_236_);}
	.st261{fill:url(#SVGID_237_);}
	.st262{fill:url(#SVGID_238_);}
	.st263{fill:url(#SVGID_239_);}
	.st264{fill:url(#SVGID_240_);}
	.st265{fill:url(#SVGID_241_);}
	.st266{fill:url(#SVGID_242_);}
	.st267{fill:#262051;}
	.st268{fill:none;stroke:#666177;stroke-width:0.8504;stroke-miterlimit:10;}
	.st269{fill:none;stroke:#666177;stroke-width:0.8504;stroke-miterlimit:10;stroke-dasharray:12.855,12.855;}
	.st270{clip-path:url(#SVGID_246_);fill:url(#SVGID_247_);}
	.st271{fill:url(#SVGID_248_);}
	.st272{fill:url(#SVGID_249_);}
	.st273{fill:url(#SVGID_250_);}
	.st274{fill:#625C73;}
	.st275{fill:#B3AEC6;}
	.st276{fill:none;stroke:#666177;stroke-width:1.0006;stroke-miterlimit:10;}
	.st277{fill:none;stroke:#666177;stroke-width:1.0006;stroke-miterlimit:10;stroke-dasharray:5.6176,5.6176;}
	.st278{fill:#666177;}
	.st279{fill:url(#SVGID_251_);}
	.st280{fill:url(#SVGID_252_);}
	.st281{fill:url(#SVGID_253_);}
	.st282{fill:url(#SVGID_254_);}
	.st283{fill:url(#SVGID_255_);}
	.st284{fill:#FFFFFF;stroke:#FFFFFF;stroke-width:0.4394;stroke-miterlimit:10;}
	.st285{fill:url(#SVGID_256_);}
	.st286{fill:url(#SVGID_257_);}
	.st287{fill:url(#SVGID_258_);}
	.st288{fill:url(#SVGID_259_);}
	.st289{fill:url(#SVGID_260_);}
	.st290{fill:url(#SVGID_261_);}
	.st291{fill:url(#SVGID_262_);}
	.st292{fill:url(#SVGID_263_);}
	.st293{fill:url(#SVGID_264_);}
	.st294{fill:url(#SVGID_265_);}
	.st295{fill:url(#SVGID_266_);}
	.st296{fill:url(#SVGID_267_);}
	.st297{fill:url(#SVGID_268_);}
	.st298{fill:url(#SVGID_269_);}
	.st299{fill:url(#SVGID_270_);}
	.st300{fill:url(#SVGID_271_);}
	.st301{fill:url(#SVGID_272_);}
	.st302{fill:url(#SVGID_273_);}
	.st303{fill:url(#SVGID_274_);}
	.st304{fill:url(#SVGID_275_);}
	.st305{fill:url(#SVGID_276_);}
	.st306{fill:url(#SVGID_277_);}
	.st307{fill:url(#SVGID_278_);}
	.st308{fill:url(#SVGID_279_);}
	.st309{fill:url(#SVGID_280_);}
	.st310{fill:url(#SVGID_281_);}
	.st311{fill:url(#SVGID_282_);}
	.st312{fill:url(#SVGID_283_);}
	.st313{fill:#A3CE09;}
	.st314{fill:#69A000;}
	.st315{fill:#FB9D3B;}
	.st316{fill:#A5E057;}
	.st317{fill:#14946D;}
	.st318{fill:#82E1FF;}
	.st319{fill:url(#SVGID_284_);}
	.st320{fill:url(#SVGID_285_);}
	.st321{fill:url(#SVGID_286_);}
	.st322{fill:url(#SVGID_287_);}
	.st323{fill:url(#SVGID_288_);}
	.st324{fill:#FFFFFF;stroke:#FFFFFF;stroke-width:0.5297;stroke-miterlimit:10;}
	.st325{fill:url(#SVGID_289_);}
	.st326{fill:url(#SVGID_290_);}
	.st327{fill:url(#SVGID_291_);}
	.st328{fill:url(#SVGID_292_);}
	.st329{fill:url(#SVGID_293_);}
	.st330{fill:url(#SVGID_294_);}
	.st331{fill:url(#SVGID_295_);}
	.st332{fill:url(#SVGID_296_);}
	.st333{fill:url(#SVGID_297_);}
	.st334{fill:url(#SVGID_298_);}
	.st335{fill:url(#SVGID_299_);}
	.st336{fill:url(#SVGID_300_);}
	.st337{fill:url(#SVGID_301_);}
	.st338{fill:url(#SVGID_302_);}
	.st339{fill:url(#SVGID_303_);}
	.st340{fill:url(#SVGID_304_);}
	.st341{fill:url(#SVGID_305_);}
	.st342{fill:url(#SVGID_306_);}
	.st343{fill:url(#SVGID_307_);}
	.st344{fill:url(#SVGID_308_);}
	.st345{fill:url(#SVGID_309_);}
	.st346{fill:url(#SVGID_310_);}
	.st347{fill:url(#SVGID_311_);}
	.st348{fill:url(#SVGID_312_);}
	.st349{fill:url(#SVGID_313_);}
	.st350{fill:url(#SVGID_314_);}
	.st351{fill:url(#SVGID_315_);}
	.st352{fill:url(#SVGID_316_);}
	.st353{fill:url(#SVGID_317_);}
	.st354{fill:url(#SVGID_318_);}
	.st355{fill:url(#SVGID_319_);}
	.st356{fill:url(#SVGID_320_);}
	.st357{fill:url(#SVGID_321_);}
	.st358{fill:url(#SVGID_322_);}
	.st359{fill:url(#SVGID_323_);}
	.st360{fill:url(#SVGID_324_);}
	.st361{fill:url(#SVGID_325_);}
	.st362{fill:url(#SVGID_326_);}
	.st363{fill:url(#SVGID_327_);}
	.st364{fill:url(#SVGID_328_);}
	.st365{fill:url(#SVGID_329_);}
	.st366{fill:url(#SVGID_330_);}
	.st367{fill:url(#SVGID_331_);}
	.st368{fill:url(#SVGID_332_);}
	.st369{fill:url(#SVGID_333_);}
	.st370{fill:url(#SVGID_334_);}
	.st371{fill:url(#SVGID_335_);}
	.st372{fill:url(#SVGID_336_);}
	.st373{fill:url(#SVGID_337_);}
	.st374{fill:url(#SVGID_338_);}
	.st375{fill:url(#SVGID_339_);}
	.st376{fill:url(#SVGID_340_);}
	.st377{fill:url(#SVGID_341_);}
	.st378{fill:url(#SVGID_342_);}
	.st379{fill:url(#SVGID_343_);}
	.st380{fill:url(#SVGID_344_);}
	.st381{fill:url(#SVGID_345_);}
	.st382{fill:url(#SVGID_346_);}
	.st383{fill:url(#SVGID_347_);}
	.st384{fill:url(#SVGID_348_);}
	.st385{fill:url(#SVGID_349_);}
	.st386{fill:url(#SVGID_350_);}
	.st387{fill:url(#SVGID_351_);}
	.st388{fill:url(#SVGID_352_);}
	.st389{fill:url(#SVGID_353_);}
	.st390{fill:url(#SVGID_354_);}
	.st391{fill:url(#SVGID_355_);}
	.st392{fill:url(#SVGID_356_);}
	.st393{fill:url(#SVGID_357_);}
	.st394{fill:url(#SVGID_358_);}
	.st395{fill:url(#SVGID_359_);}
	.st396{fill:url(#SVGID_360_);}
	.st397{fill:url(#SVGID_361_);}
	.st398{fill:url(#SVGID_362_);}
	.st399{fill:url(#SVGID_363_);}
	.st400{fill:url(#SVGID_364_);}
	.st401{fill:url(#SVGID_365_);}
	.st402{fill:url(#SVGID_366_);}
	.st403{fill:url(#SVGID_367_);}
	.st404{fill:url(#SVGID_368_);}
	.st405{fill:url(#SVGID_369_);}
	.st406{fill:url(#SVGID_370_);}
	.st407{fill:url(#SVGID_371_);}
	.st408{fill:url(#SVGID_372_);}
	.st409{fill:url(#SVGID_373_);}
	.st410{fill:url(#SVGID_374_);}
	.st411{fill:url(#SVGID_375_);}
	.st412{fill:url(#SVGID_376_);}
	.st413{fill:url(#SVGID_377_);}
	.st414{fill:url(#SVGID_378_);}
	.st415{fill:url(#SVGID_379_);}
	.st416{fill:url(#SVGID_380_);}
	.st417{fill:url(#SVGID_381_);}
	.st418{fill:#FFFFFF;stroke:#FFFFFF;stroke-width:0.5304;stroke-miterlimit:10;}
	.st419{fill:url(#SVGID_382_);}
	.st420{fill:url(#SVGID_383_);}
	.st421{fill:url(#SVGID_384_);}
	.st422{fill:url(#SVGID_385_);}
	.st423{fill:url(#SVGID_386_);}
	.st424{fill:url(#SVGID_387_);}
	.st425{fill:url(#SVGID_388_);}
	.st426{fill:url(#SVGID_389_);}
	.st427{fill:url(#SVGID_390_);}
	.st428{fill:url(#SVGID_391_);}
	.st429{fill:url(#SVGID_392_);}
	.st430{fill:url(#SVGID_393_);}
	.st431{fill:url(#SVGID_394_);}
	.st432{fill:url(#SVGID_395_);}
	.st433{fill:url(#SVGID_396_);}
	.st434{fill:url(#SVGID_397_);}
	.st435{fill:url(#SVGID_398_);}
	.st436{fill:url(#SVGID_399_);}
	.st437{fill:url(#SVGID_400_);}
	.st438{fill:url(#SVGID_401_);}
	.st439{fill:url(#SVGID_402_);}
	.st440{fill:url(#SVGID_403_);}
	.st441{fill:url(#SVGID_404_);}
	.st442{fill:url(#SVGID_405_);}
	.st443{fill:url(#SVGID_406_);}
	.st444{fill:url(#SVGID_407_);}
	.st445{fill:url(#SVGID_408_);}
	.st446{fill:url(#SVGID_409_);}
	.st447{fill:url(#SVGID_410_);}
	.st448{fill:url(#SVGID_411_);}
	.st449{fill:url(#SVGID_412_);}
	.st450{fill:url(#SVGID_413_);}
	.st451{fill:url(#SVGID_414_);}
	.st452{fill:url(#SVGID_415_);}
	.st453{fill:url(#SVGID_416_);}
	.st454{fill:url(#SVGID_417_);}
	.st455{fill:url(#SVGID_418_);}
	.st456{fill:url(#SVGID_419_);}
	.st457{fill:url(#SVGID_420_);}
	.st458{fill:url(#SVGID_421_);}
	.st459{fill:url(#SVGID_422_);}
	.st460{fill:url(#SVGID_423_);}
	.st461{fill:url(#SVGID_424_);}
	.st462{fill:url(#SVGID_425_);}
	.st463{fill:url(#SVGID_426_);}
	.st464{fill:url(#SVGID_427_);}
	.st465{fill:url(#SVGID_428_);}
	.st466{fill:url(#SVGID_429_);}
	.st467{fill:url(#SVGID_430_);}
	.st468{fill:url(#SVGID_431_);}
	.st469{fill:url(#SVGID_432_);}
	.st470{fill:url(#SVGID_433_);}
	.st471{fill:url(#SVGID_434_);}
	.st472{fill:url(#SVGID_435_);}
	.st473{fill:url(#SVGID_436_);}
	.st474{fill:url(#SVGID_437_);}
	.st475{fill:url(#SVGID_438_);}
	.st476{fill:url(#SVGID_439_);}
	.st477{fill:url(#SVGID_440_);}
	.st478{fill:url(#SVGID_441_);}
	.st479{fill:url(#SVGID_442_);}
	.st480{fill:url(#SVGID_443_);}
	.st481{fill:url(#SVGID_444_);}
	.st482{fill:url(#SVGID_445_);}
	.st483{fill:url(#SVGID_446_);}
	.st484{fill:url(#SVGID_447_);}
	.st485{fill:url(#SVGID_448_);}
	.st486{fill:url(#SVGID_449_);}
	.st487{fill:url(#SVGID_450_);}
	.st488{fill:url(#SVGID_451_);}
	.st489{fill:url(#SVGID_452_);}
	.st490{fill:url(#SVGID_453_);}
	.st491{fill:url(#SVGID_454_);}
	.st492{fill:url(#SVGID_455_);}
	.st493{fill:url(#SVGID_456_);}
	.st494{fill:url(#SVGID_457_);}
	.st495{fill:url(#SVGID_458_);}
	.st496{fill:url(#SVGID_459_);}
	.st497{fill:url(#SVGID_460_);}
	.st498{fill:url(#SVGID_461_);}
	.st499{fill:url(#SVGID_462_);}
	.st500{fill:url(#SVGID_463_);}
	.st501{fill:url(#SVGID_464_);}
	.st502{fill:url(#SVGID_465_);}
	.st503{fill:url(#SVGID_466_);}
	.st504{fill:url(#SVGID_467_);}
	.st505{fill:url(#SVGID_468_);}
	.st506{fill:url(#SVGID_469_);}
	.st507{fill:url(#SVGID_470_);}
	.st508{fill:url(#SVGID_471_);}
	.st509{fill:#FFFFFF;stroke:#FFFFFF;stroke-width:0.4545;stroke-miterlimit:10;}
	.st510{fill:url(#SVGID_472_);}
	.st511{fill:url(#SVGID_473_);}
	.st512{fill:url(#SVGID_474_);}
	.st513{fill:url(#SVGID_475_);}
	.st514{fill:url(#SVGID_476_);}
	.st515{fill:url(#SVGID_477_);}
	.st516{fill:url(#SVGID_478_);}
	.st517{fill:url(#SVGID_479_);}
	.st518{fill:url(#SVGID_480_);}
	.st519{fill:url(#SVGID_481_);}
	.st520{fill:url(#SVGID_482_);}
	.st521{fill:url(#SVGID_483_);}
	.st522{fill:url(#SVGID_484_);}
	.st523{fill:url(#SVGID_485_);}
	.st524{fill:url(#SVGID_486_);}
	.st525{fill:url(#SVGID_487_);}
	.st526{fill:url(#SVGID_488_);}
	.st527{fill:url(#SVGID_489_);}
	.st528{fill:url(#SVGID_490_);}
	.st529{fill:url(#SVGID_491_);}
	.st530{fill:url(#SVGID_492_);}
	.st531{fill:url(#SVGID_493_);}
	.st532{fill:url(#SVGID_494_);}
	.st533{fill:url(#SVGID_495_);}
	.st534{fill:url(#SVGID_496_);}
</style>
<g>
	<polygon class="st16" points="53.6,36 22.2,17.9 53.6,36 53.6,36 53.6,36 	"/>
	<linearGradient id="SVGID_2_" gradientUnits="userSpaceOnUse" x1="9.3153" y1="89.5663" x2="14.7052" y2="20.4772">
		<stop  offset="0.2439" style="stop-color:#58CDFF"/>
		<stop  offset="0.9008" style="stop-color:#3333FF"/>
	</linearGradient>
	<path style="fill:url(#SVGID_2_);" d="M22.2,17.9l-3.9-2.3c-7.6-4.4-16.9,0.4-18.2,8.7C0.1,24.9,0,25.6,0,26.2v65.1
		c0,3.2,3.5,5.2,6.3,3.6l12.6-7.3c3.5-2,5.6-5.7,5.6-9.7v-0.3V52.9V19.2L22.2,17.9z"/>
	<linearGradient id="SVGID_3_" gradientUnits="userSpaceOnUse" x1="76.9011" y1="16.6633" x2="28.8817" y2="67.6226">
		<stop  offset="0.3155" style="stop-color:#A837FF"/>
		<stop  offset="0.9517" style="stop-color:#3333FF"/>
	</linearGradient>
	<path style="fill:url(#SVGID_3_);" d="M58.1,13.7l-0.3-0.1c7.7,4.5,7.7,15.6-0.1,20.1L53.6,36l0,0l0,0l0,0l-0.1,0.1l-16,9.3
		l-1.9,1.1c-3.8,2.2-6.1,6.3-6.1,10.7v10.5c0,3.2,3.5,5.2,6.3,3.6l23.5-13.6c0.9-0.5,1.7-1.1,2.3-1.8C75.2,44.8,74,22.9,58.1,13.7z"
		/>
	<linearGradient id="SVGID_5_" gradientUnits="userSpaceOnUse" x1="1.154177e-02" y1="4.7818" x2="57.346" y2="30.4192">
		<stop  offset="0.2439" style="stop-color:#58CDFF"/>
		<stop  offset="0.9008" style="stop-color:#3333FF"/>
	</linearGradient>
	<path style="fill:url(#SVGID_5_);" d="M57.8,13.6L40.7,3.7c0,0,0,0,0,0c-6.2-3.6-12.9-4.4-19.1-3.1C10.6,2.9,1.4,12,0.2,24.3
		c1.3-8.3,10.6-13,18.2-8.7l3.9,2.3c0,0,0,0,0,0L53.6,36l0,0l0,0l4.1-2.4C65.5,29.2,65.5,18.1,57.8,13.6z"/>
	<path class="st43" d="M98.8,56.8V20h17.5c4.6,0.2,7,2.5,7.2,6.8l0,10.3c-0.2,3.9-2.4,6-6.7,6.2l-11.5,0v13.5H98.8z M105.4,37.3H117
		v-6.6c-0.3-2.9-2.1-4.5-5.6-4.8l-6,0V37.3z"/>
	<path class="st43" d="M127.6,56.8V36.2c0-4.4,2.3-6.6,7-6.6h5.1v5.9h-2.6c-1.8,0.1-2.8,1.2-2.9,3l0,18.3H127.6z"/>
	<path class="st43" d="M150.3,56.8c-4.1,0-6.1-1.8-6.1-5.5V35.6c0-4.1,2.1-6,6.3-6h9.1c4.1,0.1,6.2,2.2,6.3,6.4l0,15.1
		c-0.1,3.7-2.2,5.6-6.3,5.7H150.3z M150.7,51.2h8.5V39.4c-0.1-2.4-1.8-3.7-4.9-3.9l-3.7,0V51.2z"/>
	<path class="st43" d="M177.7,56.8c-4.4,0-6.6-1.9-6.7-5.9l0-14.8c0.2-4.2,2.2-6.3,6-6.6l11.3,0v5.9h-6.1c-2.6,0.4-4.2,2-4.5,4.9
		l0,10.7h10.7v5.6H177.7z"/>
	<path class="st43" d="M199.2,56.8c-4.3-0.1-6.4-1.8-6.5-5.1l0-15.3c0.1-4.4,2.2-6.6,6.3-6.8l8.7,0c4.2,0.1,6.4,2.2,6.5,6.2l0,10.3
		h-14.9v5h14.9v5.6H199.2z M199.3,40.8h8.5v-2.4c-0.3-2.2-1.8-3.4-4.7-3.5l-3.8,0V40.8z"/>
	<path class="st43" d="M219,56.8v-5.6h14.4v-1.7c-0.3-2-1.7-3-4.3-3.1l-4.8,0c-3.4-0.1-5.1-1.6-5.2-4.6l0-7.2c0-3.3,1.8-5,5.4-5H240
		v5.9h-14.4v4.9h8.6c3.8,0.1,5.7,1.9,5.8,5.5l0,6.1c0,3.2-1.9,4.8-5.8,4.8H219z"/>
	<path class="st43" d="M245.1,56.8v-5.6h14.4v-1.7c-0.3-2-1.7-3-4.3-3.1l-4.8,0c-3.4-0.1-5.1-1.6-5.2-4.6l0-7.2c0-3.3,1.8-5,5.4-5
		h15.6v5.9h-14.4v4.9h8.6c3.8,0.1,5.7,1.9,5.8,5.5l0,6.1c0,3.2-1.9,4.8-5.8,4.8H245.1z"/>
	<path class="st43" d="M278.5,56.8c-4.7,0-7.1-2.1-7.2-6.4l0-22.5c-0.1-2.6,0.6-4.5,1.8-5.8c1.3-1.3,3.3-2,6.1-2l15,0V26h-10.9
		c-3.2,0.3-5,1.8-5.4,4.7l0,20.5h11.6v-5c-0.3-2.2-1.6-3.4-4-3.5l-1.9,0v-5.9h6.8c3.5,0.2,5.4,2.1,5.6,5.7l0,7.7
		c0,4.4-2.4,6.6-7.2,6.6H278.5z"/>
	<path class="st43" d="M307.4,56.8c-4.1,0-6.1-1.8-6.1-5.5V35.6c0-4.1,2.1-6,6.3-6h9.1c4.1,0.1,6.2,2.2,6.3,6.4l0,15.1
		c-0.1,3.7-2.2,5.6-6.3,5.7H307.4z M307.9,51.2h8.5V39.4c-0.1-2.4-1.8-3.7-4.9-3.9l-3.7,0V51.2z"/>
	<path class="st43" d="M339.7,56.8V20h17.5c4.6,0.2,7,2.5,7.2,6.8l0,10.3c-0.2,3.9-2.4,6-6.7,6.2l-11.5,0v13.5H339.7z M346.3,37.3
		h11.6v-6.6c-0.3-2.9-2.1-4.5-5.6-4.8l-6,0V37.3z"/>
	<rect x="368.7" y="20" class="st43" width="6.8" height="36.7"/>
	<path class="st43" d="M386,56.8c-1.9,0-3.3-0.5-4.2-1.4c-0.8-0.9-1.2-2.2-1.2-3.9l0-21.9h6.6v19.2c0,1.6,0.8,2.4,2.4,2.4h3.7
		c1.6-0.1,2.4-1,2.6-2.4l0-19.2h6.6v21.9c-0.1,3.5-2.1,5.2-6,5.3l-10.1,0L386,56.8z"/>
	<path class="st43" d="M407.4,56.8v-5.6h14.4v-1.7c-0.3-2-1.7-3-4.3-3.1l-4.8,0c-3.4-0.1-5.1-1.6-5.2-4.6l0-7.2c0-3.3,1.8-5,5.4-5
		h15.6v5.9H414v4.9h8.6c3.8,0.1,5.7,1.9,5.8,5.5l0,6.1c0,3.2-1.9,4.8-5.8,4.8H407.4z"/>
</g>
</svg>
